<?xml version="1.0" encoding="utf-8"?>
<!-- Generator: Adobe Illustrator 19.1.0, SVG Export Plug-In . SVG Version: 6.00 Build 0)  -->
<svg version="1.1" id="Слой_1" xmlns="http://www.w3.org/2000/svg" xmlns:xlink="http://www.w3.org/1999/xlink" x="0px" y="0px"
	 viewBox="0 -45 140 140" style="enable-background:new 0 0 140 140;" xml:space="preserve">
<style type="text/css">
	.st0{fill:#5D5D5D;}
</style>
<g>
	<path class="st0" d="M30.7,0.8c5.9,0.1,13.9,3.9,18.9,12.1c6.1,10,24.7,11,30.7-0.4c5.6-10.7,19.6-15,31.1-11
		c12.3,4.3,19.8,15.9,18.4,28.5c-1.4,13-11.2,22.9-24.3,24.3c-14.8,1.6-22.1,14.3-15.8,27.4c5.6,11.7,2.3,24.9-8,33
		c-9.5,7.5-23.4,7.6-33.2,0.1c-10.1-7.8-13.4-21.2-8-33c5.1-11.3,2.1-20.3-8.9-25.6c-2.1-1-4.6-1.2-7-1.4C10,53.5-0.6,41.4,0,26.7
		C0.7,12.1,12.4,0.8,30.7,0.8z M126.8,27.2c0-11.3-7.2-20.5-18.3-23.3C98.3,1.2,87.9,6.2,81.8,15.2c-2.6,3.8-7.3,7.9-11.4,8.5
		c-9.3,1.3-18.1-0.6-24-9.9C40.4,4.4,28,1.3,17.9,5.6C7.1,10.1,1.2,21.6,3.5,33.1c2.1,10.3,11.8,18.5,22.6,18.5
		c13.7,0,25,17.9,17.6,30.6c-5.6,9.7-2.7,22.4,5.9,29.5c8.9,7.3,21.3,7.6,30.1,0.6c9.3-7.3,12.1-19.4,6.9-29.7
		c-7.5-14.7,2-29.6,17.4-31.2C117.3,50.1,126.8,40.1,126.8,27.2z"/>
	<path class="st0" d="M26.9,47.4C16.1,47.3,7.3,38.2,7.6,27.3C7.8,17,16.6,8.3,27,8.2c10.6-0.1,19.8,9.2,19.7,20
		C46.7,38.6,37.6,47.5,26.9,47.4z M26.9,41.3c7.6,0.1,13.6-5.6,13.8-13.1c0.2-7.4-6.2-13.9-13.7-13.9c-7.3,0-13.3,6.1-13.3,13.5
		C13.7,35.5,19.3,41.2,26.9,41.3z"/>
	<path class="st0" d="M102.9,46.5c-11,0-19.5-8.2-19.7-19.1c-0.2-10.9,8.7-19.6,19.8-19.5c11,0.1,19.4,8.6,19.4,19.4
		C122.4,38.2,113.9,46.5,102.9,46.5z M116.3,26.9c-0.1-7.2-6.6-13.5-13.7-13.4c-7.2,0.2-13.3,6.6-13.3,13.8
		c0,7.2,6.5,13.6,13.5,13.6C110.2,41,116.5,34.5,116.3,26.9z"/>
	<path class="st0" d="M84.2,49.5c0,10.9-8.5,19.5-19.3,19.6c-11,0-19.6-8.8-19.4-19.9c0.1-10.7,8.5-19.2,19-19.3
		C75.7,29.8,84.3,38.3,84.2,49.5z M64.6,36C57.4,36,51,42.5,51.2,49.6C51.3,56.8,57.6,63,64.9,63c7.6,0,13.7-6.3,13.6-13.9
		C78.3,41.8,72,35.9,64.6,36z"/>
	<path class="st0" d="M84.5,93.3c0,10.9-8.4,19.3-19.3,19.3c-10.9,0-19.4-8.3-19.4-19.2c0-11.2,8.6-19.8,19.6-19.6
		C76.4,74,84.5,82.3,84.5,93.3z M64.9,79.6c-7.3,0.1-13.5,6.4-13.5,13.7c0,7.1,6.5,13.6,13.6,13.6c7.4,0,13.9-6.6,13.7-14
		C78.7,85.8,72,79.5,64.9,79.6z"/>
	<path class="st0" d="M37.4,27.8c0,5.6-4.5,10.2-10.2,10.3c-6,0.1-10.5-4.4-10.4-10.4c0.1-5.5,4.8-10.2,10.3-10.2
		C32.5,17.6,37.5,22.5,37.4,27.8z"/>
	<path class="st0" d="M102.6,17.2c5.8-0.1,10.4,4.2,10.5,9.8c0.1,5.6-4.3,10.2-10,10.3c-5.7,0.1-10.4-4.2-10.6-9.8
		C92.4,21.9,96.9,17.3,102.6,17.2z"/>
	<path class="st0" d="M75,49.2c0.1,5.8-4.4,10.5-9.9,10.5c-5.8-0.1-10.2-4.4-10.2-10.2c0-5.8,4.4-10.4,9.9-10.4
		C70.7,39.1,74.9,43.4,75,49.2z"/>
	<path class="st0" d="M55,93.1c0.1-5.8,4.7-10.4,10.2-10.2c5.6,0.2,10.1,4.9,9.9,10.5c-0.1,5.8-4.5,10.1-10.3,10
		C59.2,103.3,54.9,98.8,55,93.1z"/>
</g>
</svg>
